<?xml version="1.0" standalone="no"?><!DOCTYPE svg PUBLIC "-//W3C//DTD SVG 1.1//EN" "http://www.w3.org/Graphics/SVG/1.1/DTD/svg11.dtd"><svg t="1779030773919" class="icon" viewBox="0 0 1024 1024" version="1.1" xmlns="http://www.w3.org/2000/svg" p-id="28196" xmlns:xlink="http://www.w3.org/1999/xlink" width="200" height="200"><path d="M868.751 199.844H155.25a44.595 44.595 0 0 0-44.596 44.595v431.068h802.688V244.44a44.595 44.595 0 0 0-44.59-44.595z" fill="#98DCF0" p-id="28197"></path><path d="M609.884 496.988l-154.946 178.52h309.867l-154.92-178.52z" fill="#699B54" p-id="28198"></path><path d="M583.066 675.512L376.53 437.535 169.99 675.512h-59.337v104.044a44.595 44.595 0 0 0 44.596 44.6h713.497c24.627 0 44.595-19.968 44.595-44.6V675.507l-330.275 0.005z" fill="#80BB67" p-id="28199"></path><path d="M705.234 348.488c-0.015 32.834 26.593 59.463 59.433 59.479 32.834 0.01 59.464-26.599 59.479-59.438v-0.041c0.01-32.84-26.598-59.47-59.433-59.48-32.84-0.01-59.469 26.599-59.48 59.434v0.046z" fill="#FFE68E" p-id="28200"></path></svg>