<svg t="1780633671075" class="icon" viewBox="0 0 1024 1024" version="1.1" xmlns="http://www.w3.org/2000/svg" p-id="22175" width="200" height="200"><path d="M836.9 133.3h-88.7V93.5c0-16.2-13.3-29.5-29.5-29.5s-29.5 13.3-29.5 29.5v39.7H364.4V93.5c0-16.2-13.3-29.5-29.5-29.5s-29.5 13.3-29.5 29.5v39.7H187.1c-48.6 0-88.5 39.6-88.5 88.5v649.8c0 48.6 39.6 88.5 88.5 88.5h649.8c48.6 0 88.5-39.6 88.5-88.5V221.7c0-48.6-39.6-88.4-88.5-88.4z m0 767.6H187.1c-16.1 0-29.4-13.3-29.4-29.4V221.7c0-16.1 13.3-29.4 29.4-29.4h118.2v8.4c0 16.2 13.3 29.5 29.5 29.5s29.5-13.3 29.5-29.5v-8.4h324.8v8.4c0 16.2 13.3 29.5 29.5 29.5s29.5-13.3 29.5-29.5v-8.4h88.7c16.1 0 29.4 13.3 29.4 29.4v649.8c0.1 16.2-13.2 29.4-29.3 29.4z m-88.7-561H275.8c-16.2 0-29.5 13.3-29.5 29.5s13.3 29.5 29.5 29.5h472.4c16.2 0 29.5-13.3 29.5-29.5s-13.2-29.5-29.5-29.5z m0 177.2H275.8c-16.2 0-29.5 13.3-29.5 29.5s13.3 29.5 29.5 29.5h472.4c16.2 0 29.5-13.3 29.5-29.5s-13.2-29.5-29.5-29.5zM512 694.3H275.8c-16.2 0-29.5 13.3-29.5 29.5s13.3 29.5 29.5 29.5H512c16.2 0 29.5-13.3 29.5-29.5s-13.3-29.5-29.5-29.5z" fill="currentColor" p-id="22176"></path></svg>