<svg t="1780636296303" class="icon" viewBox="0 0 1024 1024" version="1.1" xmlns="http://www.w3.org/2000/svg" p-id="29263" width="200" height="200"><path d="M828.2 603.6c0-57.2-15.4-110.8-42-157.1-0.2-0.3-0.2-0.7-0.4-1.1-0.2-0.4-0.7-0.6-0.9-1-54.8-93.8-156.3-157-272.9-157-116.5 0-218.1 63.2-272.9 157.1-0.3 0.4-0.7 0.6-0.9 1-0.2 0.3-0.2 0.7-0.4 1.1-26.6 46.3-42 99.8-42 157.1 0 57 15.4 110.3 41.8 156.4 0.3 0.5 0.3 1.2 0.6 1.7 5.8 10.1 16.5 15.3 27.4 15.3v0.4h493v-0.5c10.9 0 21.5-5.2 27.4-15.3 0.3-0.5 0.3-1.1 0.6-1.7 26.2-46.1 41.6-99.4 41.6-156.4z" fill="#DFD2FF" p-id="29264"></path><path d="M668.1 370.6c-13.6-7.8-31-3.2-38.9 10.4L462.7 612.6c-15.7 27.2-6.4 62 20.8 77.7 27.2 15.7 62 6.4 77.7-20.8l117.3-260c7.9-13.6 3.2-31-10.4-38.9z" fill="#FB560A" p-id="29265"></path><path d="M512 70.4c-141.4 0-269.4 57.3-362 150C57.3 313 0 441 0 582.4s57.3 269.4 150 362c6.1 6.1 14.1 9.2 22.1 9.2h679.8c8 0 16-3 22.1-9.2 92.7-92.7 150-220.7 150-362 0-282.8-229.2-512-512-512z m325.7 821.1H186.3C116.6 818 71.6 721.1 64.2 613.7h29.7c17.3 0 31.3-14 31.3-31.3s-14-31.3-31.3-31.3H64.2c6.9-100.5 46.7-191.8 109-263.3l21.1 21.1c12.2 12.2 32 12.2 44.3 0 12.2-12.2 12.2-32 0-44.3l-21.1-21.1c71.5-62.3 162.8-102 263.3-109v29.7c0 17.3 14 31.3 31.3 31.3s31.3-14 31.3-31.3v-29.7c100.5 6.9 191.8 46.7 263.3 109l-21.1 21.1c-12.2 12.2-12.2 32 0 44.3 12.2 12.2 32 12.2 44.2 0l21.1-21.1c62.3 71.5 102 162.8 109 263.3h-29.7c-17.3 0-31.3 14-31.3 31.3s14 31.3 31.3 31.3h29.7c-7.5 107.4-52.5 204.3-122.2 277.8z" fill="#793FE6" p-id="29266"></path></svg>