<svg t="1780637216191" class="icon" viewBox="0 0 1024 1024" version="1.1" xmlns="http://www.w3.org/2000/svg" p-id="64367" width="200" height="200"><path d="M217.429333 743.822222c0 181.646222 124.814222 252.017778 278.812445 252.017778s278.812444-70.371556 278.812444-252.017778c0-181.646222-120.206222-376.945778-274.204444-376.945778-153.941333 0-283.420444 195.299556-283.420445 376.945778" fill="#FFB779" p-id="64368"></path><path d="M351.687111 691.143111C403.569778 612.124444 417.223111 533.617778 417.223111 533.617778s40.789333 55.409778 24.632889 141.994666C513.877333 591.644444 527.587556 458.524444 516.778667 407.267556c163.271111 118.897778 236.828444 362.894222 142.620444 553.585777 500.167111-294.684444 120.490667-722.318222 55.182222-772.209777 21.731556 49.891556 25.770667 133.973333-18.090666 174.648888C659.399111 85.333333 437.76 29.752889 437.76 29.752889c21.617778 151.950222-79.246222 296.504889-176.298667 420.807111-3.584-60.416-7.224889-102.4-37.774222-160.369778-6.826667 109.966222-87.722667 199.907556-109.454222 309.873778-29.354667 149.504 21.902222 245.361778 218.680889 360.789333-62.008889-133.859556-28.728889-197.404444 18.773333-269.710222z" fill="#F36818" p-id="64369"></path></svg>