<?xml version="1.0" standalone="no"?><!DOCTYPE svg PUBLIC "-//W3C//DTD SVG 1.1//EN" "http://www.w3.org/Graphics/SVG/1.1/DTD/svg11.dtd"><svg t="1779030633747" class="icon" viewBox="0 0 1024 1024" version="1.1" xmlns="http://www.w3.org/2000/svg" p-id="24604" xmlns:xlink="http://www.w3.org/1999/xlink" width="200" height="200"><path d="M20.859 674.135h982.282q20.475 0 20.475 20.475v271.804q0 20.475-20.475 20.475H20.86q-20.475 0-20.475-20.475V694.61q0-20.475 20.475-20.475z" fill="#37C989" p-id="24605"></path><path d="M95.593 705.104h-0.257q25.85 0 25.85 25.85v198.862q0 25.85-25.85 25.85h0.256q-25.85 0-25.85-25.85V730.953q0-25.85 25.85-25.85z" fill="#FFFFFF" p-id="24606"></path><path d="M20.859 355.751h982.282q20.475 0 20.475 20.475V648.03q0 20.475-20.475 20.475H20.86q-20.475 0-20.475-20.475V376.226q0-20.475 20.475-20.475z" fill="#88AEDF" p-id="24607"></path><path d="M95.593 386.72h-0.257q25.85 0 25.85 25.849V611.43q0 25.85-25.85 25.85h0.256q-25.85 0-25.85-25.85V412.57q0-25.85 25.85-25.85z" fill="#FFFFFF" p-id="24608"></path><path d="M20.859 37.11h982.282q20.475 0 20.475 20.476V329.39q0 20.475-20.475 20.475H20.86q-20.475 0-20.475-20.475V57.586q0-20.475 20.475-20.475z" fill="#F28781" p-id="24609"></path><path d="M399.644 0h224.2q20.475 0 20.475 20.475v983.05q0 20.475-20.475 20.475h-224.2q-20.475 0-20.475-20.475V20.475Q379.17 0 399.644 0z" fill="#FFC799" p-id="24610"></path><path d="M95.593 68.335h-0.257q25.85 0 25.85 25.85v198.862q0 25.85-25.85 25.85h0.256q-25.85 0-25.85-25.85V94.184q0-25.85 25.85-25.85z" fill="#FFFFFF" p-id="24611"></path><path d="M379.17 628.579h265.149v20.987h-265.15z" fill="#F2B177" p-id="24612"></path><path d="M370.211 368.036h283.066q20.475 0 20.475 20.475v230.342q0 20.475-20.475 20.475H370.21q-20.474 0-20.474-20.475V388.511q0-20.475 20.474-20.475z" fill="#F8F2E8" p-id="24613"></path><path d="M461.069 88.042h102.374a81.9 81.9 0 0 1 81.9 81.9v427.925a20.475 20.475 0 0 1-20.475 20.474H399.644a20.475 20.475 0 0 1-20.475-20.474V169.942a81.9 81.9 0 0 1 81.9-81.9z" fill="#FFD7AE" p-id="24614"></path><path d="M474.889 478.6a29.433 29.433 0 1 0 58.866 0 29.433 29.433 0 1 0-58.866 0z" fill="#C7650B" p-id="24615"></path><path d="M379.17 321.456h265.149v20.986h-265.15z" fill="#F2B177" p-id="24616"></path><path d="M370.211 198.606h283.066q20.475 0 20.475 20.475v91.625q0 20.475-20.475 20.475H370.21q-20.474 0-20.474-20.475v-91.625q0-20.475 20.474-20.475z" fill="#FFCB98" p-id="24617"></path><path d="M474.89 480.648s2.047-20.475 29.432-20.475 29.433 20.475 29.433 20.475L512 620.388a9.47 9.47 0 0 1-9.214 8.19 9.47 9.47 0 0 1-9.47-8.19z" fill="#FFFFFF" p-id="24618"></path></svg>